HIERARCHY
ROOT Hips
{
	OFFSET 0.000000 0.000000 0.000000 
	CHANNELS 6 Xposition Yposition Zposition Yrotation Zrotation Xrotation 
	JOINT Lumbar
	{
		OFFSET 0.000000 0.000000 0.000000 
		CHANNELS 3 Zrotation Xrotation Yrotation
		JOINT Neck
		{
			OFFSET 0.000000 0.445665 0.000000 
			CHANNELS 3 Zrotation Xrotation Yrotation
			End Site
			{
				OFFSET 0.000000 0.227535 0.000000 
			}
		}
		JOINT RightShoulder
		{
			OFFSET 0.019635 0.377685 0.194865 
			CHANNELS 3 Zrotation Xrotation Yrotation
			JOINT RightElbow
			{
				OFFSET 0.000000 -0.243375 0.000000 
				CHANNELS 2 Zrotation Yrotation
				JOINT RightWrist
				{
					OFFSET 0.000000 -0.264825 0.000000 
					CHANNELS 2 Zrotation Xrotation
					End Site
					{
						OFFSET 0.006600 -0.176220 0.000990 
					}
				}
			}
		}
		JOINT LeftShoulder
		{
			OFFSET 0.019635 0.377685 -0.194865 
			CHANNELS 3 Zrotation Xrotation Yrotation
			JOINT LeftElbow
			{
				OFFSET 0.000000 -0.243375 0.000000 
				CHANNELS 2 Zrotation Yrotation
				JOINT LeftWrist
				{
					OFFSET 0.000000 -0.264825 0.000000 
					CHANNELS 2 Zrotation Xrotation
					End Site
					{
						OFFSET 0.006600 -0.176220 -0.000990 
					}
				}
			}
		}
	}
	JOINT RightHip
	{
		OFFSET 0.052140 -0.069960 0.075570 
		CHANNELS 3 Zrotation Xrotation Yrotation
		JOINT RightKnee
		{
			OFFSET 0.000000 -0.402270 0.000000 
			CHANNELS 1 Zrotation
			JOINT RightAnkle
			{
				OFFSET 0.000000 -0.404085 0.000000 
				CHANNELS 3 Zrotation Xrotation Yrotation
				End Site
				{
					OFFSET 0.204105 -0.089430 0.008415 
				}
			}
		}
	}
	JOINT LeftHip
	{
		OFFSET 0.052140 -0.069960 -0.075570 
		CHANNELS 3 Zrotation Xrotation Yrotation
		JOINT LeftKnee
		{
			OFFSET 0.000000 -0.402270 0.000000 
			CHANNELS 1 Zrotation
			JOINT LeftAnkle
			{
				OFFSET 0.000000 -0.404085 0.000000 
				CHANNELS 3 Zrotation Xrotation Yrotation
				End Site
				{
					OFFSET 0.204105 -0.089430 -0.008415 
				}
			}
		}
	}
}
MOTION
Frames: 33
Frame Time: 0.02
-0.32384 -0.18749 0.14473 19.26369 -39.30814 -4.96513 8.29882 4.65778 1.02485 1.65256 -5.27037 -0.83032 29.00154 -21.36044 18.44358 77.10754 82.43813 -11.41309 -9.40859 13.45136 26.74554 -13.80823 81.51637 -82.77798 -9.66896 4.33784 101.01268 -10.23242 -7.01166 -63.93943 -7.39042 -2.789 -2.10164 101.50215 12.70427 4.58335 -64.32017 -8.30748 1.00409 1.17523
-0.31826 -0.17762 0.1442 19.4197 -39.13335 -4.81963 9.10786 4.67319 0.8963 2.10823 -4.96596 -0.83033 30.75336 -21.06445 19.41018 78.69971 84.89785 -12.0406 -9.24275 14.81486 26.58433 -14.98107 82.90356 -84.11753 -10.26385 4.71666 99.06744 -10.13916 -7.44812 -62.02509 -7.42988 -2.76485 -2.08941 99.48001 12.58187 4.71347 -62.21816 -8.35008 0.9864 1.16483
-0.31223 -0.16796 0.14363 19.59573 -38.83438 -4.65718 9.9748 4.68818 0.7722 2.56255 -4.65961 -0.83034 32.61737 -20.82293 20.49151 79.84208 87.94889 -12.79149 -8.78591 16.42383 26.38795 -16.28809 84.25695 -85.9459 -11.12655 5.23882 96.98665 -10.02361 -7.8576 -60.11196 -7.46905 -2.74418 -2.07833 97.30878 12.3862 4.73098 -60.09253 -8.37902 0.98298 1.16091
-0.30635 -0.15823 0.14307 19.75981 -38.58168 -4.50397 10.81879 4.705 0.64322 3.01607 -4.35888 -0.83034 34.42802 -20.54658 21.527 81.11779 90.61776 -13.44531 -8.47939 17.93832 26.19085 -17.5369 85.57862 -87.47917 -11.82672 5.68171 94.95916 -9.89256 -8.22677 -58.20081 -7.50895 -2.72843 -2.0705 95.19502 12.22879 4.8014 -57.9808 -8.41533 0.97283 1.15414
-0.30068 -0.14837 0.14256 19.93787 -38.36661 -4.34373 11.64926 4.71569 0.52652 3.47857 -4.03632 -0.83035 36.26118 -20.31239 22.54015 82.68816 93.76543 -14.27331 -8.10104 19.38933 26.06513 -18.77907 87.10149 -89.3118 -12.6942 6.18448 92.95983 -9.86575 -8.81098 -56.27628 -7.54678 -2.68611 -2.04729 93.11702 12.05025 4.86627 -55.85181 -8.44726 0.9634 1.14686
-0.29447 -0.13886 0.14193 20.09051 -38.04594 -4.19414 12.52279 4.73849 0.38496 3.91813 -3.75946 -0.83036 38.06396 -20.00476 23.62414 83.54492 96.05859 -14.76712 -7.79791 21.02357 25.78329 -20.06329 88.19684 -90.63856 -13.27707 6.59392 90.87342 -9.6212 -8.9494 -54.38265 -7.58836 -2.69885 -2.05573 90.93355 11.89836 4.91466 -53.75681 -8.48461 0.95614 1.14227
-0.28695 -0.13015 0.14102 20.17209 -37.46078 -4.0803 13.4833 4.79815 0.17669 4.32805 -3.60942 -0.83037 39.81989 -19.46614 24.8908 82.48421 95.81734 -14.31143 -7.81894 23.15067 25.06446 -21.45065 88.11709 -90.47246 -13.0294 6.74313 88.56607 -8.74158 -7.78962 -52.55361 -7.64433 -2.8723 -2.15693 88.47711 11.83827 4.95228 -51.73565 -8.54328 0.94966 1.14294
-0.2789 -0.1218 0.13999 20.22647 -36.77484 -3.9775 14.48779 4.86938 -0.05733 4.70831 -3.50563 -0.83037 41.52738 -18.85508 26.22076 80.73431 94.70019 -13.51463 -7.91799 25.44274 24.19279 -22.87067 87.61105 -89.77909 -12.48366 6.78852 86.17928 -7.65079 -6.19535 -50.75994 -7.70332 -3.09931 -2.28892 85.92408 11.80744 4.97534 -49.75499 -8.60723 0.94525 1.14624
-0.27106 -0.11335 0.13901 20.29039 -36.13804 -3.86829 15.48391 4.93304 -0.28155 5.08079 -3.38088 -0.83038 43.21518 -18.28587 27.51245 79.33365 94.00447 -12.87134 -7.95065 27.62995 23.3994 -24.26339 87.29818 -89.31117 -12.06102 6.85953 83.83844 -6.68277 -4.84917 -48.96307 -7.75834 -3.29548 -2.40305 83.4278 11.76314 5.00067 -47.77232 -8.66679 0.94101 1.14871
-0.26331 -0.10464 0.13805 20.36681 -35.48316 -3.76423 16.43447 5.00633 -0.49754 5.54462 -3.25596 -0.83038 45.08738 -17.67792 28.85165 77.7535 93.23404 -12.23781 -8.10062 29.95859 22.56475 -25.71704 86.9755 -88.91349 -11.69768 7.02345 81.45057 -5.60167 -3.29067 -47.11025 -7.8244 -3.51896 -2.5334 80.87118 11.71726 5.04195 -45.7177 -8.73447 0.93244 1.14974
-0.25527 -0.09656 0.13702 20.41067 -34.8431 -3.65245 17.48781 5.06247 -0.73689 5.8091 -3.1422 -0.83038 46.55712 -17.13647 30.10121 76.40404 92.39938 -11.5025 -8.03253 32.02035 21.78373 -27.04528 86.58629 -88.24608 -11.13922 6.97121 79.14435 -4.70516 -2.06855 -45.38439 -7.86811 -3.69856 -2.63745 78.42024 11.68225 5.04615 -43.82524 -8.78644 0.93339 1.15445
-0.24659 -0.09002 0.13582 20.36927 -34.27481 -3.51541 18.82954 5.06694 -1.03384 5.54787 -3.04959 -0.83039 46.97328 -16.76409 31.12297 75.73632 91.63555 -10.55983 -7.30991 33.37355 21.15822 -28.05585 85.99956 -86.89104 -10.09137 6.31259 77.07861 -4.38008 -1.90941 -43.98366 -7.84979 -3.74092 -2.65967 76.27908 11.67346 4.96834 -42.35137 -8.79558 0.9583 1.16765
-0.23766 -0.08412 0.13456 20.29623 -33.72495 -3.37058 20.27014 5.05402 -1.35342 5.08393 -2.96619 -0.8304 46.97755 -16.46676 32.04512 75.34953 90.82941 -9.5283 -6.37253 34.43811 20.59774 -28.931 85.38316 -85.29371 -8.86082 5.4453 75.1002 -4.24669 -2.09979 -42.71288 -7.80875 -3.73765 -2.65459 74.25048 11.67447 4.85144 -41.04352 -8.78848 0.99296 1.18461
-0.22885 -0.07798 0.13332 20.23901 -33.16257 -3.23021 21.65502 5.05007 -1.66317 4.70108 -2.87765 -0.83041 47.13895 -16.15611 32.98926 74.91821 90.01561 -8.54251 -5.55718 35.58887 20.02729 -29.84416 84.8575 -83.852 -7.72763 4.69636 73.08428 -4.01856 -2.11071 -41.39324 -7.7779 -3.7574 -2.66322 72.17356 11.66902 4.74158 -39.67175 -8.78761 1.02433 1.2005
-0.21998 -0.07163 0.1321 20.17512 -32.61188 -3.08623 23.08663 5.04209 -1.97238 4.3631 -2.79524 -0.83042 47.42311 -15.75574 34.03414 74.11332 89.27932 -7.51992 -4.64246 36.93661 19.36875 -30.8602 83.98929 -82.20018 -6.52246 3.84668 71.05265 -3.81363 -2.18914 -40.03064 -7.74791 -3.77004 -2.6678 70.07701 11.67253 4.67516 -38.25057 -8.79159 1.05108 1.21383
-0.21118 -0.06586 0.13084 20.11754 -32.0453 -2.94788 24.44429 5.0381 -2.28717 3.88476 -2.70102 -0.83043 47.35756 -15.56035 34.84445 74.16007 88.3902 -6.56028 -3.88115 37.80186 18.9112 -31.62645 83.83497 -80.93514 -5.42924 3.15597 69.08013 -3.61066 -2.22107 -38.78936 -7.71045 -3.78515 -2.67347 68.05462 11.65995 4.51078 -36.97387 -8.78176 1.08957 1.23329
-0.20254 -0.06147 0.12948 20.08891 -31.40659 -2.82609 25.56731 5.05031 -2.61619 3.06085 -2.5775 -0.83045 46.39998 -15.918 35.03292 76.51227 87.02929 -5.77263 -3.61011 37.41695 18.99291 -31.76024 85.64456 -80.79985 -4.67795 2.9783 67.21023 -3.34967 -1.99284 -37.83939 -7.66022 -3.82497 -2.69263 66.1646 11.59543 4.07231 -36.03351 -8.73614 1.1593 1.26931
-0.194 -0.05766 0.12809 20.06714 -30.75552 -2.71027 26.61221 5.06689 -2.94886 2.10416 -2.44074 -0.83047 45.11044 -16.47822 34.98823 79.71023 85.53129 -5.05774 -3.49812 36.55387 19.27528 -31.64261 88.1776 -81.06391 -4.04964 2.96402 65.40407 -3.08789 -1.71526 -37.00926 -7.60289 -3.86749 -2.71304 64.35384 11.51529 3.53947 -35.23721 -8.67753 1.24015 1.3112
-0.18546 -0.05363 0.12674 20.0399 -30.12713 -2.59231 27.6983 5.08079 -3.27718 1.21349 -2.30585 -0.83049 43.99029 -16.94314 35.04883 82.51097 84.14025 -4.32645 -3.30338 35.90073 19.46656 -31.62404 90.39237 -81.14666 -3.3739 2.86035 63.59551 -2.83876 -1.4945 -36.1317 -7.5472 -3.90392 -2.73012 62.53714 11.44542 3.0581 -34.38855 -8.62586 1.31521 1.35008
-0.17669 -0.04944 0.1253 20.02151 -29.43021 -2.47195 28.7689 5.097 -3.61863 0.29209 -2.18782 -0.83051 42.77551 -17.42629 35.10843 85.37928 82.55992 -3.52059 -3.14435 35.26692 19.66003 -31.66495 92.56523 -81.22153 -2.65457 2.81323 61.6798 -2.5455 -1.1459 -35.22832 -7.49709 -3.95869 -2.75757 60.59872 11.36216 2.53772 -33.48835 -8.56899 1.39412 1.39075
-0.16845 -0.04571 0.12403 19.98669 -28.86917 -2.35777 29.84558 5.10969 -3.93207 -0.59459 -2.03265 -0.83052 41.68688 -17.91613 35.11653 88.29921 81.34036 -2.88965 -2.95278 34.48529 19.8952 -31.52403 94.99291 -81.40876 -2.05928 2.68988 59.99873 -2.33997 -1.04052 -34.40634 -7.43437 -3.9773 -2.76453 58.92943 11.30341 2.07844 -32.73006 -8.52038 1.46704 1.42881
-0.16159 -0.04305 0.12319 19.90524 -28.71915 -2.26227 31.01219 5.11151 -4.17747 -1.34804 -1.76719 -0.83053 41.00821 -18.39565 35.03538 91.19618 81.16623 -2.71552 -2.62198 33.39433 20.20102 -30.9431 97.98828 -81.829 -1.76407 2.3174 58.97308 -2.38995 -1.67814 -33.7722 -7.33517 -3.88834 -2.71047 58.00104 11.31253 1.79637 -32.30748 -8.4956 1.52478 1.4602
-0.15529 -0.04083 0.12252 19.80705 -28.70072 -2.17236 32.17727 5.10977 -4.3923 -2.0616 -1.46674 -0.83053 40.47359 -18.87053 34.91165 94.1064 81.35742 -2.71711 -2.2557 32.17625 20.54058 -30.18879 101.20707 -82.34615 -1.59278 1.86364 58.17753 -2.52511 -2.55061 -33.2168 -7.22423 -3.76431 -2.63656 57.33843 11.34768 1.58207 -32.02671 -8.48019 1.5753 1.48838
-0.14878 -0.03845 0.12179 19.71646 -28.59965 -2.07778 33.30681 5.1098 -4.61461 -2.79588 -1.18953 -0.83054 39.8881 -19.33373 34.81069 96.98262 81.37122 -2.64402 -1.9139 31.0293 20.86153 -29.51365 104.29764 -82.80659 -1.37366 1.44695 57.25989 -2.61148 -3.27343 -32.6294 -7.12104 -3.66136 -2.57467 56.54053 11.37297 1.34641 -31.6927 -8.46185 1.62643 1.51674
-0.14205 -0.03596 0.12096 19.62632 -28.592 -1.99198 34.58565 5.10924 -4.86509 -3.52498 -0.88112 -0.83055 39.22957 -19.86283 34.6874 100.00847 81.42764 -2.55092 -1.54327 29.80773 21.20392 -28.82649 107.52858 -83.33362 -1.12252 1.03421 56.41474 -2.73954 -4.17112 -32.02945 -7.00752 -3.53733 -2.50046 55.80085 11.38857 1.06722 -31.31273 -8.43692 1.68929 1.55076
-0.13594 -0.03379 0.12038 19.53093 -28.42444 -1.88967 35.55543 5.1091 -5.04839 -4.2524 -0.62927 -0.83055 38.76119 -20.25021 34.6032 102.71242 81.48453 -2.5411 -1.22092 28.71934 21.50634 -28.12847 110.50766 -83.74062 -0.96637 0.59317 55.47712 -2.80217 -4.76699 -31.4738 -6.91267 -3.44816 -2.44678 55.00932 11.43177 0.89649 -31.06501 -8.42874 1.72578 1.57208
-0.13131 -0.03236 0.12039 19.42765 -27.75483 -1.73583 35.66061 5.11019 -5.06366 -4.99457 -0.54488 -0.83055 38.79002 -20.25218 34.64161 104.5389 81.44833 -2.71101 -1.05172 28.01825 21.69477 -27.42722 112.75912 -83.78362 -1.03803 0.08193 54.18701 -2.65268 -4.41981 -31.01202 -6.87358 -3.46982 -2.45834 53.94702 11.53575 1.00433 -31.10725 -8.45952 1.69181 1.55977
-0.1273 -0.03124 0.12065 19.31936 -26.92496 -1.56608 35.45698 5.11197 -5.01044 -5.73402 -0.51826 -0.83055 39.00553 -20.10973 34.72127 106.0335 81.40165 -2.95952 -0.92976 27.46022 21.83975 -26.72534 114.74104 -83.70202 -1.20106 -0.45358 52.80319 -2.43632 -3.77061 -30.59338 -6.85348 -3.52668 -2.49058 52.83512 11.66818 1.21971 -31.28509 -8.50787 1.63144 1.53467
-0.12306 -0.03 0.12082 19.21147 -26.18722 -1.40647 35.40313 5.11389 -4.98201 -6.46758 -0.46334 -0.83055 39.13249 -20.02923 34.78038 107.66671 81.36376 -3.17668 -0.77775 26.84664 22.00083 -26.03521 116.82864 -83.68149 -1.32453 -0.97088 51.48872 -2.25754 -3.29423 -30.16013 -6.82379 -3.56349 -2.51093 51.78594 11.79386 1.38984 -31.42592 -8.55145 1.58266 1.51492
-0.11864 -0.02869 0.1209 19.11016 -25.37308 -1.23443 35.31082 5.11367 -4.97938 -7.22957 -0.41545 -0.83055 39.28008 -19.96433 34.84524 109.35431 81.32149 -3.38225 -0.65972 26.18813 22.17939 -25.29009 118.99768 -83.64642 -1.4446 -1.52108 50.06931 -2.05152 -2.67631 -29.70783 -6.79763 -3.61611 -2.54103 50.57452 11.89516 1.54921 -31.4655 -8.58163 1.53515 1.4969
-0.11473 -0.02759 0.12123 18.99516 -24.67768 -1.08488 35.22342 5.11823 -4.907 -7.93263 -0.36758 -0.83055 39.427 -19.8326 34.9088 110.84724 81.28116 -3.62748 -0.48398 25.65917 22.30978 -24.66212 120.9273 -83.61001 -1.59122 -2.00768 48.84324 -1.88504 -2.2779 -29.30541 -6.76891 -3.64471 -2.5561 49.68817 12.05262 1.75285 -31.7493 -8.64397 1.47906 1.47244
-0.11204 -0.02697 0.12221 18.83547 -24.35457 -0.99727 35.24143 5.13491 -4.66005 -8.46976 -0.30175 -0.83055 39.52783 -19.55185 34.95676 111.90127 81.24676 -3.96918 -0.12506 25.45179 22.32561 -24.35507 122.28262 -83.60345 -1.79343 -2.31086 48.17301 -1.84549 -2.56288 -29.02099 -6.72766 -3.59774 -2.52385 49.68989 12.36649 2.07692 -32.64672 -8.78854 1.4039 1.43184
-0.10985 -0.02655 0.12344 18.664 -24.15503 -0.93356 35.27207 5.15647 -4.34514 -8.94848 -0.23494 -0.83056 39.6204 -19.20885 35.00257 112.76716 81.2132 -4.3459 0.2911 25.37057 22.29286 -24.16736 123.4009 -83.5974 -2.0178 -2.54926 47.69971 -1.84741 -3.07723 -28.78655 -6.68342 -3.52573 -2.47603 50.02312 12.73389 2.43726 -33.78879 -8.96498 1.32143 1.38551
